<?xml version="1.0" standalone="no"?>
<!DOCTYPE svg PUBLIC "-//W3C//DTD SVG 1.0//EN" "http://www.w3.org/TR/2001/REC-SVG-20010904/DTD/svg10.dtd">
<svg xmlns="http://www.w3.org/2000/svg" xmlns:xlink="http://www.w3.org/1999/xlink" id="body_1" width="20" height="20">

<g transform="matrix(0.31249028 0 0 0.31249028 0 0)">
    <path transform="matrix(1 0 0 1 0 0)"  d="M0 0L64 0L64 64.002L0 64.002z" stroke="none" fill="none" />
	<g transform="matrix(1 0 0 1 8.695 12.555)">
        <path transform="matrix(1 0 0 1 0.596 0.596)"  d="M1.661 1.66C 1.661 1.66 1.518 21.515 6.456 30.767C 10.278999 37.931 12.656 38.74 17.013 38.74C 18.283 38.74 19.721 38.671 21.413 38.671C 23.105 38.671 24.544 38.74 25.813 38.74C 30.18 38.74 32.586 37.931 36.419 30.767002C 41.374 21.515 41.218 1.66 41.218 1.66L41.218 1.66L1.661 1.66zM1.661 -0.597L41.218 -0.597C 42.45712 -0.5964906 43.46412 0.40291798 43.474 1.6420001C 43.481 2.476 43.573997 22.183 38.412 31.832C 36.330997 35.72 34.587997 37.957 32.582 39.311C 30.562645 40.575924 28.193935 41.167313 25.817 41C 25.199 41 24.555 40.985 23.873 40.969C 23.095999 40.951 22.292 40.932003 21.412998 40.932003C 20.533997 40.932003 19.729998 40.951004 18.953 40.969C 18.272999 40.985 17.63 41 17.014 41C 14.6429205 41.168884 12.27977 40.57722 10.268 39.311C 8.276999 37.959 6.5409994 35.723 4.4679995 31.833C -0.684 22.182 -0.6 2.478 -0.6 1.644C -0.5928426 0.401011 0.4179926 -0.60222363 1.661 -0.6z" stroke="none" fill="#000000" fill-rule="nonzero" />
	</g>
	<g transform="matrix(1 0 0 1 48.722 20.417)">
        <path transform="matrix(1 0 0 1 -54.903 -21.632)"  d="M58.174 21.831C 58.174 21.831 67.147 19.588 66.494 30.151C 65.841 40.713997 54.9 41.743 54.9 41.743" stroke="#000000" stroke-width="2" fill="none" />
	</g>
	<g transform="matrix(1 0 0 1 16.794 21.032)">
        <path transform="matrix(1 0 0 1 -25.839 -93.161)"  d="M25.839 93.161C 25.977074 97.10278 26.386032 101.03033 27.063 104.916" stroke="#000000" stroke-width="1.8" stroke-linecap="square" fill="none" />
        <path transform="matrix(1 0 0 1 -23.818 -80.232)"  d="M26.565 97.8C 26.916 98.842 27.436 100.118004 28.016 101.4" stroke="#000000" stroke-width="1.8" stroke-linecap="square" fill="none" />
	</g>
</g>
</svg>