<?xml version="1.0" standalone="no"?>
<!DOCTYPE svg PUBLIC "-//W3C//DTD SVG 1.0//EN" "http://www.w3.org/TR/2001/REC-SVG-20010904/DTD/svg10.dtd">
<svg xmlns="http://www.w3.org/2000/svg" xmlns:xlink="http://www.w3.org/1999/xlink" id="body_1" width="20" height="20">

<g transform="matrix(0.3125 0 0 0.3125 0 0)">
    <path transform="matrix(1 0 0 1 0 0)"  d="M0 0L64 0L64 64L0 64z" stroke="none" fill="none" />
	<g transform="matrix(1 0 0 1 8.695 14.171)">
        <path transform="matrix(1 0 0 1 0.596 0.596)"  d="M1.661 1.66C 1.661 1.66 1.518 21.514 6.456 30.766C 10.278999 37.93 12.656 38.738 17.013 38.738C 18.283 38.738 19.721 38.669 21.413 38.669C 23.105 38.669 24.544 38.738 25.813 38.738C 30.18 38.738 32.586 37.929 36.419 30.765999C 41.374 21.514 41.218 1.66 41.218 1.66L41.218 1.66L1.661 1.66zM1.661 -0.597L41.218 -0.597C 42.45712 -0.5964906 43.46412 0.40291798 43.474 1.6420001C 43.481 2.476 43.573997 22.182001 38.412 31.831C 36.330997 35.718998 34.587997 37.954998 32.582 39.309C 30.562881 40.57462 28.194155 41.166714 25.817 41C 25.199 41 24.555 40.985 23.873 40.969C 23.095999 40.951 22.292 40.932003 21.412998 40.932003C 20.533997 40.932003 19.729998 40.951004 18.953 40.969C 18.272999 40.985 17.63 41 17.014 41C 14.6429205 41.168884 12.27977 40.57722 10.268 39.311C 8.276999 37.959 6.5409994 35.723 4.4679995 31.834C -0.684 22.182 -0.6 2.478 -0.6 1.644C -0.5928426 0.401011 0.4179926 -0.60222363 1.661 -0.6z" stroke="none" fill="#000000" fill-rule="nonzero" />
	</g>
	<g transform="matrix(1 0 0 1 48.722 22.068)">
        <path transform="matrix(1 0 0 1 -54.903 -21.632)"  d="M58.174 21.831C 58.174 21.831 67.147 19.588 66.494 30.151C 65.841 40.713997 54.9 41.742 54.9 41.742" stroke="#000000" stroke-width="2" fill="none" />
	</g>
	<g transform="matrix(1 0 0 1 12.859 19.408)">
        <path transform="matrix(1 0 0 1 0.062 -0.238)"  d="M9.728 0.238C 15.259 0.238 19.456 2.707 25.077 3.592C 30.698 4.477 35.264 1.857 35.17 2.81C 34.769997 8.257999 33.603996 20.557 31.101997 25.233C 26.696997 33.465 24.411997 32.265 17.745998 32.265C 11.08 32.265 8.831999 33.465 4.438998 25.233C 2.1 20.845 0.449 10.487 -0.057 4.493C -0.228 2.28 4.2 0.238 9.728 0.238z" stroke="none" fill="#000000" fill-rule="nonzero" />
	</g>
</g>
</svg>